<svg width="24" height="24" viewBox="0 0 24 24" fill="none" xmlns="http://www.w3.org/2000/svg">
<path fill-rule="evenodd" clip-rule="evenodd" d="M14.5 15C14.5001 15.1007 14.4699 15.2024 14.4068 15.2906L11.9068 18.7906C11.7463 19.0153 11.4341 19.0674 11.2094 18.9069C10.9847 18.7464 10.9326 18.4341 11.0931 18.2094L11.4719 17.6791L9.14645 15.3536C9.04881 15.2559 9 15.128 9 15H8.5C7.86838 15 7.01107 15.3008 6.31265 15.8596C5.59839 16.431 5 17.3141 5 18.5C5 19.036 5.0659 19.5582 5.29128 20.0286C5.52244 20.511 5.90116 20.8973 6.45221 21.1912C7.51078 21.7557 9.25065 21.9998 11.9968 22L12 22C14.748 22 16.4888 21.756 17.5478 21.1912C18.0989 20.8973 18.4776 20.511 18.7087 20.0286C18.9341 19.5582 19 19.036 19 18.5C19 17.3141 18.4016 16.431 17.6874 15.8596C16.9889 15.3008 16.1316 15 15.5 15H14.5ZM8.75 17.25C8.75 16.9739 8.52614 16.75 8.25 16.75C7.97386 16.75 7.75 16.9739 7.75 17.25V17.5H7.5C7.22386 17.5 7 17.7239 7 18C7 18.2761 7.22386 18.5 7.5 18.5H7.75V18.75C7.75 19.0261 7.97386 19.25 8.25 19.25C8.52614 19.25 8.75 19.0261 8.75 18.75V18.5H9C9.27614 18.5 9.5 18.2761 9.5 18C9.5 17.7239 9.27614 17.5 9 17.5H8.75V17.25Z" fill="#0075FF"/>
<path fill-rule="evenodd" clip-rule="evenodd" d="M15.7774 5.08398C16.2672 5.41052 16.6911 6.02971 16.9967 6.72345C17.309 7.43255 17.5282 8.28782 17.5621 9.15549C17.596 10.0223 17.4455 10.9298 16.9863 11.7149C16.6175 12.3456 16.0623 12.8744 15.293 13.2332C15.1841 13.4337 15.0642 13.6257 14.9344 13.807C14.2821 14.7182 13.2655 15.5 12 15.5C10.7345 15.5 9.71785 14.7182 9.06555 13.807C8.9358 13.6257 8.81592 13.4337 8.70703 13.2332C7.93766 12.8744 7.38254 12.3456 7.01369 11.7149C6.55451 10.9298 6.404 10.0223 6.43786 9.15549C6.47175 8.28782 6.691 7.43255 7.00334 6.72345C7.30892 6.02971 7.73282 5.41052 8.22263 5.08398C8.87633 4.64818 9.28812 5.97034 9.52822 6.36231C9.61106 6.5058 9.79416 6.55402 9.94269 6.48061C10.5812 6.16506 11.2851 6 12 6C12.7149 6 13.4188 6.16506 14.0573 6.48061C14.2058 6.55402 14.3889 6.5058 14.4718 6.36231C14.7118 5.97054 15.1236 4.64812 15.7774 5.08398ZM13.3535 7.14646C13.5488 7.34172 13.5488 7.6583 13.3535 7.85356C13.2547 7.95242 13.1207 8.08582 12.9456 8.238C13.1571 8.44676 13.3414 8.61169 13.5986 8.7403C13.8876 8.88481 14.3067 9.00001 15 9.00001C15.2761 9.00001 15.5 9.22387 15.5 9.50001C15.5 9.58798 15.4773 9.67064 15.4374 9.74245C15.4785 9.98813 15.5 10.2414 15.5 10.5C15.5 11.574 15.1297 12.6753 14.5279 13.5159C13.9303 14.3507 13.0469 15 12 15C10.9531 15 10.0697 14.3507 9.47212 13.5159C8.87032 12.6753 8.5 11.574 8.5 10.5C8.5 10.3024 8.51254 10.1079 8.53681 9.91746C8.35064 9.86095 8.20682 9.69788 8.18473 9.49224C8.15523 9.21768 8.35389 8.97119 8.62845 8.94169C11.1192 8.67408 12.2336 7.55941 12.6386 7.15429L12.6464 7.14646C12.8417 6.95119 13.1583 6.95119 13.3535 7.14646Z" fill="#0075FF"/>
<path fill-rule="evenodd" clip-rule="evenodd" d="M8.02901 3.12817C9.25134 2.4823 10.6143 2.14355 12 2.14355C13.3857 2.14355 14.7487 2.4823 15.971 3.12817C16.3791 3.34378 16.5014 3.84697 16.283 4.22516L14.9048 6.6123C14.6801 7.00155 14.2022 7.1099 13.8358 6.92885C13.266 6.64727 12.638 6.49999 12 6.49999C11.3621 6.49999 10.734 6.64727 10.1642 6.92885C9.7979 7.1099 9.31997 7.00155 9.09524 6.6123L7.71702 4.22516C7.49867 3.84697 7.62097 3.34378 8.02901 3.12817ZM8.69138 3.91281L9.87344 5.96019C10.5396 5.6577 11.2645 5.49999 12 5.49999C12.7355 5.49999 13.4604 5.6577 14.1266 5.96019L15.3087 3.91281C14.2811 3.4077 13.1494 3.14355 12 3.14355C10.8506 3.14355 9.71892 3.4077 8.69138 3.91281Z" fill="#0075FF"/>
</svg>
