<svg width="24" height="24" viewBox="0 0 24 24" fill="none" xmlns="http://www.w3.org/2000/svg">
<path fill-rule="evenodd" clip-rule="evenodd" d="M9.09083 4.34669C9.97392 4.754 10.8742 5.16921 12 5.16921C13.1275 5.16921 14.0327 4.75573 14.9199 4.35053C15.1086 4.26431 15.2966 4.17847 15.4856 4.09706C15.999 3.87604 16.5553 3.67629 17.1246 3.69808C17.7284 3.72119 18.2792 3.98802 18.7873 4.55031C20.6552 6.54395 20.9259 9.59282 20.4188 12.45C19.9091 15.3223 18.5889 18.1592 17.0656 19.8507L17.061 19.8558C16.7705 20.1695 16.3422 20.4128 15.8944 20.4139C15.6603 20.4145 15.4158 20.347 15.2068 20.1794C15.0061 20.0184 14.8733 19.7932 14.7999 19.5338C14.6357 19.0989 14.5174 18.6482 14.4068 18.2269L14.3612 18.0538C14.2317 17.565 14.1032 17.1153 13.9113 16.6979L13.9074 16.6894L13.9038 16.6808C13.5104 15.7338 12.7386 15.3125 11.9848 15.3212C11.2236 15.3301 10.4348 15.7786 10.0277 16.6925L10.0253 16.6979C9.83271 17.1167 9.7015 17.5676 9.56943 18.0562L9.52128 18.2355C9.4089 18.655 9.28903 19.1025 9.12589 19.5341C9.0526 19.7923 8.92353 20.0203 8.72169 20.1823C8.50913 20.353 8.26189 20.4135 8.03003 20.4063C7.59538 20.3927 7.18538 20.1461 6.90176 19.882L6.88534 19.8667L6.87035 19.85C5.35242 18.1585 4.05172 15.3133 3.55965 12.4377C3.07025 9.57773 3.35695 6.52885 5.22373 4.54988C5.73327 3.98481 6.28401 3.71482 6.88825 3.69054C7.45848 3.66762 8.01391 3.86871 8.52548 4.09099C8.7145 4.17311 8.90227 4.25972 9.09083 4.34669ZM17.2236 5.55277C16.9766 5.42928 16.6763 5.52939 16.5528 5.77638C16.4293 6.02337 16.5294 6.32371 16.7764 6.4472C17.4763 6.79715 17.5 7.47539 17.5 7.99999C17.5 8.27613 17.7238 8.49999 18 8.49999C18.2761 8.49999 18.5 8.27613 18.5 7.99999L18.5 7.97488C18.5004 7.4796 18.5015 6.19171 17.2236 5.55277Z" fill="#0075FF"/>
</svg>
